<?xml version="1.0" standalone="no"?>
<!DOCTYPE svg PUBLIC "-//W3C//DTD SVG 20010904//EN"
 "http://www.w3.org/TR/2001/REC-SVG-20010904/DTD/svg10.dtd">
<svg version="1.0" xmlns="http://www.w3.org/2000/svg"
 width="66.000000pt" height="66.000000pt" viewBox="0 0 66.000000 66.000000"
 preserveAspectRatio="xMidYMid meet">
<metadata>
Created by potrace 1.15, written by Peter Selinger 2001-2017
</metadata>
<g transform="translate(0.000000,66.000000) scale(0.100000,-0.100000)"
fill="#000000" stroke="none">
<path d="M48 618 c-13 -18 -23 -36 -23 -40 0 -3 -3 -10 -7 -14 -12 -11 -10
-202 2 -209 5 -3 7 -12 3 -20 -3 -9 0 -21 6 -29 6 -7 8 -16 5 -19 -3 -3 -2
-12 2 -19 5 -7 9 -16 10 -20 1 -5 3 -10 4 -13 1 -3 4 -9 5 -15 1 -5 4 -12 5
-15 1 -3 3 -11 4 -17 0 -7 6 -13 11 -14 6 0 17 -4 27 -8 17 -8 60 -3 89 9 10
3 20 2 24 -4 3 -6 13 -11 22 -11 13 0 13 3 3 15 -7 8 -9 15 -5 15 5 0 -10 13
-31 29 -51 37 -85 74 -89 97 -2 11 -4 20 -5 22 -5 7 -2 60 4 70 4 7 5 16 2 21
-5 8 86 86 102 86 4 1 17 6 28 13 12 6 24 9 27 5 3 -3 14 -2 24 2 25 11 46 12
60 2 7 -5 19 -7 27 -4 8 3 17 3 20 -1 4 -3 13 -7 22 -8 17 -3 113 -74 115 -86
2 -11 6 -27 9 -33 2 -6 3 -64 0 -67 -1 -2 -3 -11 -5 -22 -4 -23 -59 -82 -100
-107 -16 -10 -26 -19 -21 -19 5 0 3 -7 -4 -15 -10 -12 -10 -15 3 -15 9 0 19 5
22 11 4 6 14 7 24 4 29 -12 72 -17 89 -9 10 4 22 8 27 8 6 1 11 7 11 14 1 6 3
14 4 17 1 3 4 10 5 15 1 6 4 12 5 15 1 3 3 8 4 13 1 4 5 13 10 20 4 7 5 16 2
19 -3 3 -1 12 5 19 6 8 9 20 6 29 -4 8 -2 17 3 20 6 4 10 50 9 103 0 87 -3
102 -28 142 -28 46 -61 61 -99 44 -10 -4 -27 -6 -39 -5 -13 1 -28 -1 -34 -5
-6 -3 -58 -6 -115 -5 -70 2 -104 -1 -104 -9 0 -7 37 -10 114 -9 63 1 120 -3
128 -7 7 -5 18 -9 23 -9 13 0 14 -26 2 -43 -8 -10 -15 -9 -34 4 -14 8 -31 13
-38 10 -8 -3 -17 -1 -20 4 -8 13 -152 13 -160 0 -4 -6 -10 -8 -15 -5 -5 3 -20
-1 -33 -10 -19 -12 -26 -13 -34 -3 -13 18 -11 43 5 44 6 1 14 3 17 4 3 1 11 3
18 4 6 0 12 8 12 16 0 10 -11 15 -32 16 -18 0 -36 3 -39 7 -4 4 -22 7 -40 7
-25 0 -38 -7 -56 -32z"/>
<path d="M259 467 c-58 -36 -91 -66 -84 -77 8 -13 42 -13 50 0 3 5 12 7 20 3
8 -3 23 -2 33 2 9 4 29 7 44 6 15 -1 33 1 40 5 6 4 34 6 62 5 44 -2 48 -1 37
13 -23 27 -103 66 -135 65 -17 0 -47 -11 -67 -22z"/>
</g>
</svg>
